# Blender v2.90.1 OBJ File: ''
# www.blender.org
mtllib buggy.mtl
o MainBody
v 1.960505 0.121789 0.032559
v 1.960505 0.121789 -0.032557
v 1.960505 0.035004 -0.032557
v 2.025620 0.035004 -0.032557
v 2.025620 0.121789 -0.032557
v 2.025620 0.035004 0.032559
v 2.025620 0.121789 0.032559
v 2.025620 0.121790 1.083552
v 1.960505 0.035004 0.032559
v 2.025620 0.902858 0.032558
v 1.960505 0.902858 -0.032557
v 2.025620 0.902858 -0.032557
v 1.960505 0.121790 1.148667
v 1.960505 0.121790 1.083552
v 1.960505 0.035004 1.083552
v 2.025620 0.035004 1.148667
v 2.025620 0.121790 1.148667
v 1.960505 0.035004 1.148667
v 2.025620 0.035004 1.083552
v 2.025620 0.902858 1.148667
v 1.960505 0.902858 1.083552
v 2.025620 0.902858 1.083552
v 1.960505 0.496703 1.148667
v 1.960505 0.496703 1.083552
v 2.025620 0.496702 1.083552
v 2.025620 0.496702 1.148667
v 1.960505 0.496702 0.032559
v 1.960505 0.496702 -0.032557
v 2.025620 0.496702 -0.032557
v 2.025620 0.496702 0.032559
v 1.960505 0.902858 0.032558
v 1.960505 0.590431 -0.032557
v 2.025620 0.590431 -0.032557
v 2.025620 0.590431 0.032558
v 1.960505 0.590431 0.032558
v 1.960505 0.902858 1.148667
v 1.960505 0.590431 1.083552
v 2.025620 0.590431 1.083552
v 2.025620 0.590431 1.148667
v 1.960505 0.590431 1.148667
v -1.135648 4.236132 -2.439155
v -1.135648 0.944072 -2.349645
v -1.135648 0.944072 -2.439157
v -1.135648 4.236132 -2.349643
v -1.225160 0.944072 -2.349645
v -1.225160 4.236132 -2.349643
v -1.225160 0.944072 -2.439157
v -1.225160 4.236132 -2.439155
v -0.984018 1.417435 -1.140142
v -0.984018 0.990447 -2.542124
v -0.984018 0.990447 -1.140142
v -0.984018 1.417435 -2.542124
v 0.984019 0.990446 -2.542124
v 0.984019 1.417434 -2.542124
v 0.984019 0.990446 -1.140142
v 0.984019 1.417434 -1.140142
v -1.000000 1.444865 1.836146
v -1.000000 1.054287 -0.163853
v -1.000000 1.054287 1.836147
v -1.000000 1.444865 -0.163853
v 1.000000 1.444865 -0.163853
v 1.000000 1.054287 1.836147
v 1.000000 1.054287 -0.163853
v 1.000000 1.444865 1.836147
v -1.401982 1.100000 -1.534202
v -1.401982 0.900000 -2.803965
v -1.401982 0.900000 -1.534202
v -1.401982 1.100001 -2.803965
v 1.401982 1.099999 -2.803964
v 2.000000 1.099999 -0.319406
v 2.000000 0.899997 4.000001
v 2.000000 0.899999 -0.319406
v 2.000000 1.099997 4.000001
v -2.000000 0.899998 4.000000
v 1.401982 0.899999 -2.803964
v 1.401982 0.899999 -1.534201
v 1.401982 1.099999 -1.534201
v -0.980572 3.493236 2.036422
v -0.980572 1.122929 1.618471
v -0.980572 3.424314 2.427284
v 0.980572 1.122929 1.618472
v -0.980572 1.054009 2.009334
v 0.980572 3.424314 2.427284
v 0.980572 1.054009 2.009335
v 0.980572 3.493235 2.036422
v -0.742343 4.377108 1.957738
v -0.742343 3.422644 1.939662
v -0.742343 4.367643 2.457410
v 0.742344 3.422644 1.939663
v -0.742343 3.413181 2.439332
v 0.742344 4.367643 2.457410
v 0.742344 3.413181 2.439332
v 0.742344 4.377108 1.957739
v -0.551987 1.338115 -2.478072
v -0.551987 1.028880 -3.436547
v -0.551987 1.028879 -2.478072
v -0.551987 1.338117 -3.436547
v 0.551987 1.338117 -3.436547
v 0.551987 1.028878 -2.478072
v 0.551987 1.028880 -3.436547
v 0.551987 1.338115 -2.478072
v -2.033444 0.121790 0.032558
v -2.033444 0.121790 -0.032558
v -2.033444 0.035005 -0.032558
v -1.968328 0.035005 -0.032558
v -1.968328 0.121790 -0.032558
v -1.968328 0.035005 0.032558
v -1.968328 0.121790 0.032558
v -1.968328 0.121790 1.083551
v -2.033444 0.035005 0.032558
v -1.968328 0.902859 0.032558
v -2.033444 0.902859 -0.032558
v -1.968328 0.902859 -0.032558
v -2.033444 0.121790 1.148666
v -2.033444 0.121790 1.083551
v -2.033444 0.035005 1.083551
v -1.968328 0.035005 1.148666
v -1.968328 0.121790 1.148666
v -2.033444 0.035005 1.148666
v -1.968328 0.035005 1.083551
v -1.968328 0.902859 1.148666
v -2.033444 0.902859 1.083551
v -1.968328 0.902859 1.083551
v -2.033444 0.496704 1.148666
v -2.033444 0.496704 1.083551
v -1.968328 0.496703 1.083551
v -1.968328 0.496703 1.148666
v -2.033444 0.496703 0.032558
v -2.033444 0.496703 -0.032558
v -1.968328 0.496703 -0.032558
v -1.968328 0.496703 0.032558
v -2.033444 0.902859 0.032558
v -2.033444 0.590432 -0.032558
v -1.968328 0.590432 -0.032558
v -1.968328 0.590432 0.032558
v -2.033444 0.590432 0.032558
v -2.033444 0.902859 1.148666
v -2.033444 0.590432 1.083551
v -1.968328 0.590432 1.083551
v -1.968328 0.590432 1.148666
v -2.033444 0.590432 1.148666
v -2.000000 1.099998 4.000000
v -2.000000 0.900000 -0.319407
v -2.000000 1.100000 -0.319407
vt 0.831442 0.264770
vt 0.826945 0.264756
vt 0.826977 0.254323
vt 0.735286 0.852961
vt 0.730822 0.842513
vt 0.730790 0.852947
vt 0.474443 0.758477
vt 0.469914 0.748058
vt 0.469946 0.758491
vt 0.896324 0.374080
vt 0.891605 0.446544
vt 0.896102 0.446558
vt 0.882155 0.369590
vt 0.886638 0.365085
vt 0.882141 0.365099
vt 0.779149 0.031014
vt 0.774666 0.026509
vt 0.774652 0.031000
vt 0.908518 0.265003
vt 0.904022 0.264989
vt 0.904054 0.254556
vt 0.831474 0.254337
vt 0.397366 0.758713
vt 0.392837 0.748294
vt 0.392869 0.758727
vt 0.750092 0.852961
vt 0.745628 0.842513
vt 0.745596 0.852947
vt 0.882390 0.446558
vt 0.886873 0.442053
vt 0.882376 0.442067
vt 0.779149 0.245490
vt 0.774666 0.240986
vt 0.774652 0.245476
vt 0.908380 0.310076
vt 0.903883 0.310062
vt 0.745137 0.898039
vt 0.745274 0.852961
vt 0.740640 0.898025
vt 0.397505 0.803785
vt 0.393008 0.803798
vt 0.749954 0.898039
vt 0.745457 0.898025
vt 0.831303 0.309844
vt 0.826806 0.309830
vt 0.735148 0.898039
vt 0.730651 0.898025
vt 0.474582 0.803549
vt 0.470085 0.803563
vt 0.739966 0.898038
vt 0.735607 0.852947
vt 0.735469 0.898025
vt 0.886652 0.369576
vt 0.740136 0.842526
vt 0.735640 0.842513
vt 0.740779 0.852947
vt 0.745307 0.842527
vt 0.740811 0.842513
vt 0.831154 0.358673
vt 0.826657 0.358660
vt 0.826771 0.321099
vt 0.734998 0.946873
vt 0.730617 0.909294
vt 0.730502 0.946859
vt 0.474732 0.852376
vt 0.470120 0.814830
vt 0.470235 0.852389
vt 0.739815 0.946873
vt 0.735434 0.909294
vt 0.735319 0.946859
vt 0.908229 0.358905
vt 0.903733 0.358892
vt 0.903848 0.321331
vt 0.432606 0.852639
vt 0.437218 0.890190
vt 0.437103 0.852625
vt 0.397655 0.852612
vt 0.393043 0.815067
vt 0.393158 0.852625
vt 0.749803 0.946873
vt 0.745422 0.909294
vt 0.745307 0.946859
vt 0.908345 0.321344
vt 0.397539 0.815053
vt 0.749919 0.909308
vt 0.831268 0.321112
vt 0.735113 0.909308
vt 0.474617 0.814816
vt 0.905980 0.446558
vt 0.910256 0.374066
vt 0.905759 0.374079
vt 0.739931 0.909308
vt 0.903864 0.321393
vt 0.903883 0.310062
vt 0.831284 0.321175
vt 0.831319 0.309906
vt 0.905538 0.374066
vt 0.905759 0.446544
vt 0.901262 0.446558
vt 0.999215 0.593042
vt 0.989181 0.197303
vt 0.997999 0.197276
vt 0.977931 0.593121
vt 0.970329 0.197276
vt 0.979147 0.197303
vt 0.999215 0.988904
vt 0.989181 0.593148
vt 0.997999 0.593121
vt 0.979147 0.197303
vt 0.989181 0.593148
vt 0.980363 0.593121
vt 0.774652 0.224813
vt 0.783497 0.233592
vt 0.774679 0.233619
vt 0.191998 0.807591
vt 0.140177 0.945358
vt 0.140593 0.807433
vt 0.775247 0.224786
vt 0.826062 0.031014
vt 0.826657 0.224628
vt 0.881186 0.878121
vt 0.932166 0.740036
vt 0.932589 0.877964
vt 0.774652 0.447938
vt 0.826657 0.254481
vt 0.826061 0.448095
vt 0.417414 0.747622
vt 0.278710 0.554426
vt 0.416824 0.554006
vt 0.556033 0.748044
vt 0.417920 0.747622
vt 0.556626 0.554429
vt 0.980027 0.740181
vt 0.932589 0.877964
vt 0.933005 0.740036
vt 0.092295 0.945506
vt 0.091871 0.807579
vt 0.139320 0.945361
vt 0.036861 0.945506
vt 0.083457 0.807435
vt 0.083880 0.945361
vt 0.195609 0.945359
vt 0.243059 0.807577
vt 0.242636 0.945504
vt 0.278710 0.691935
vt 0.140597 0.692354
vt 0.278289 0.554008
vt 0.138898 0.692357
vt 0.001207 0.554008
vt 0.139320 0.554430
vt 0.879512 0.861947
vt 0.855017 0.999799
vt 0.855434 0.861873
vt 0.934356 0.724023
vt 0.933510 0.448169
vt 0.958436 0.723949
vt 0.830093 0.724023
vt 0.853323 0.448095
vt 0.854169 0.723949
vt 0.908582 0.723949
vt 0.933510 0.448169
vt 0.932662 0.724023
vt 0.279130 0.140238
vt 0.554945 0.001476
vt 0.555365 0.139399
vt 0.277442 0.416086
vt 0.277020 0.554008
vt 0.001207 0.415242
vt 0.880762 0.740036
vt 0.880888 0.453616
vt 0.908455 0.734517
vt 0.936780 0.197276
vt 0.936368 0.062029
vt 0.963834 0.197194
vt 0.936243 0.072496
vt 0.908675 0.353386
vt 0.908550 0.066977
vt 0.360604 0.883289
vt 0.388078 0.748124
vt 0.387664 0.883372
vt 0.692936 0.733201
vt 0.829245 0.448510
vt 0.828370 0.733615
vt 0.692060 0.448095
vt 0.557502 0.733624
vt 0.556626 0.448510
vt 0.658255 0.957992
vt 0.658418 0.843236
vt 0.692774 0.957276
vt 0.326090 0.955118
vt 0.325778 0.852728
vt 0.360604 0.955013
vt 0.632700 0.843234
vt 0.598344 0.957271
vt 0.598183 0.842519
vt 0.278710 0.955013
vt 0.313539 0.852729
vt 0.313225 0.955118
vt 0.036437 0.807121
vt 0.036789 0.692357
vt 0.138968 0.807435
vt 0.242706 0.692354
vt 0.140529 0.807433
vt 0.140177 0.692668
vt 0.474732 0.852740
vt 0.437218 0.946920
vt 0.437503 0.852625
vt 0.750458 0.951236
vt 0.750124 0.842627
vt 0.787690 0.951122
vt 0.430354 0.852740
vt 0.392837 0.946921
vt 0.393127 0.852625
vt 0.692936 0.951122
vt 0.730502 0.842627
vt 0.730168 0.951236
vt 0.692936 0.842233
vt 0.598183 0.733911
vt 0.692604 0.733624
vt 0.787357 0.842513
vt 0.692936 0.842233
vt 0.787690 0.733904
vt 0.479517 0.758491
vt 0.475020 0.758477
vt 0.475052 0.748044
vt 0.901277 0.109992
vt 0.905806 0.120412
vt 0.905774 0.109978
vt 0.360316 0.758475
vt 0.355787 0.748055
vt 0.355819 0.758488
vt 0.891605 0.374080
vt 0.886887 0.446544
vt 0.891384 0.446558
vt 0.388092 0.752545
vt 0.388078 0.748124
vt 0.392575 0.748042
vt 0.779149 0.238123
vt 0.774679 0.233619
vt 0.774652 0.238109
vt 0.556594 0.758723
vt 0.552097 0.758709
vt 0.552129 0.748276
vt 0.479549 0.748058
vt 0.283239 0.758710
vt 0.278710 0.748291
vt 0.278742 0.758724
vt 0.088666 0.817883
vt 0.084169 0.817869
vt 0.084201 0.807435
vt 0.388327 0.829514
vt 0.388313 0.825023
vt 0.392810 0.825010
vt 0.779149 0.005980
vt 0.774666 0.001476
vt 0.774652 0.005967
vt 0.556455 0.803797
vt 0.551958 0.803783
vt 0.321111 0.852638
vt 0.321249 0.897714
vt 0.325608 0.852623
vt 0.283378 0.803782
vt 0.278881 0.803796
vt 0.088527 0.862961
vt 0.084030 0.862947
vt 0.479378 0.803565
vt 0.474882 0.803551
vt 0.901139 0.064914
vt 0.905636 0.064900
vt 0.360454 0.803546
vt 0.355957 0.803560
vt 0.905636 0.175952
vt 0.901278 0.130860
vt 0.901139 0.175938
vt 0.392589 0.752531
vt 0.905806 0.120412
vt 0.901310 0.120426
vt 0.325746 0.897700
vt 0.321281 0.908149
vt 0.325778 0.908135
vt 0.479229 0.852394
vt 0.474732 0.852376
vt 0.474848 0.814819
vt 0.900990 0.016081
vt 0.905601 0.053632
vt 0.905486 0.016067
vt 0.360604 0.852373
vt 0.355992 0.814827
vt 0.356107 0.852387
vt 0.905486 0.224786
vt 0.901105 0.187208
vt 0.900990 0.224772
vt 0.556305 0.852627
vt 0.551809 0.852613
vt 0.551924 0.815052
vt 0.313539 0.852638
vt 0.318151 0.890187
vt 0.318035 0.852623
vt 0.283527 0.852610
vt 0.278916 0.815064
vt 0.279030 0.852623
vt 0.088377 0.911795
vt 0.083996 0.874217
vt 0.083880 0.911781
vt 0.556420 0.815065
vt 0.283412 0.815050
vt 0.088493 0.874231
vt 0.479344 0.814832
vt 0.901105 0.053646
vt 0.360489 0.814814
vt 0.896545 0.446558
vt 0.900821 0.374065
vt 0.896324 0.374080
vt 0.905601 0.187222
vt 0.551924 0.815052
vt 0.551958 0.803783
vt 0.479378 0.803565
vt 0.479360 0.814895
vt 0.392575 0.829514
vt 0.392796 0.901992
vt 0.388299 0.902005
vt 0.880762 0.448169
vt 0.855851 0.723947
vt 0.856684 0.448095
vt 0.830516 0.861950
vt 0.854594 0.861876
vt 0.280391 0.554006
vt 0.555785 0.277321
vt 0.556626 0.553167
vt 0.278710 0.002320
vt 0.277865 0.278164
vt 0.002475 0.001476
vt 0.879929 0.724021
vt 0.279551 0.278161
vt 0.001630 0.277320
vt 0.830940 0.999876
vt 0.855017 0.999799
vt 0.735319 0.842526
vt 0.474411 0.748044
vt 0.891827 0.374066
vt 0.779163 0.026523
vt 0.908550 0.254569
vt 0.397334 0.748280
vt 0.750124 0.842526
vt 0.886887 0.446544
vt 0.779162 0.241000
vt 0.740104 0.852961
vt 0.432721 0.890204
vt 0.910477 0.446544
vt 0.901042 0.374079
vt 0.990397 0.593069
vt 0.969113 0.593094
vt 0.990397 0.988932
vt 0.987965 0.197276
vt 0.783470 0.224786
vt 0.191581 0.945516
vt 0.774652 0.031171
vt 0.880762 0.740194
vt 0.775247 0.254323
vt 0.279300 0.748042
vt 0.979610 0.878107
vt 0.036437 0.807579
vt 0.196034 0.807433
vt 0.000785 0.691935
vt 0.879095 0.999873
vt 0.829245 0.448169
vt 0.909429 0.448095
vt 0.278710 0.002320
vt 0.908582 0.448095
vt 0.936368 0.358905
vt 0.361018 0.748042
vt 0.693811 0.448095
vt 0.692936 0.733201
vt 0.692936 0.842519
vt 0.632862 0.957986
vt 0.279030 0.852623
vt 0.243059 0.807119
vt 0.474447 0.947033
vt 0.138897 0.807435
vt 0.430065 0.947034
vt 0.693269 0.842513
vt 0.598513 0.842519
vt 0.360293 0.852623
vt 0.000785 0.553164
vt 0.963422 0.061947
vt 0.957589 0.448095
vt 0.693268 0.733615
vt 0.787357 0.842513
vt 0.283207 0.748277
vt 0.140177 0.554428
vt 0.139320 0.692671
vt 0.418513 0.554006
vt 0.901310 0.120426
vt 0.360284 0.748042
vt 0.887109 0.374066
vt 0.779162 0.233632
vt 0.556626 0.748290
vt 0.088698 0.807449
vt 0.392823 0.829500
vt 0.779163 0.001490
vt 0.905774 0.130874
vt 0.313654 0.890201
vt 0.901042 0.446544
vt 0.388078 0.829528
vn -1.0000 0.0000 0.0000
vn 0.0000 -0.0000 1.0000
vn 0.0000 -1.0000 0.0000
vn 0.0000 1.0000 0.0000
vn 0.0000 0.0000 -1.0000
vn 1.0000 0.0000 0.0000
vn 0.0000 -0.9848 -0.1736
vn 0.0000 0.9848 0.1736
vn 0.0000 0.9848 0.1737
vn -0.0000 -0.1736 0.9848
vn 0.0000 0.1736 -0.9848
vn 0.0000 -0.9998 -0.0189
vn -0.0000 0.9998 0.0189
vn 0.0000 -0.0189 0.9998
vn 0.0000 0.0189 -0.9998
vn 0.8972 0.0000 -0.4417
vn -0.8972 -0.0000 -0.4417
usemtl None
s 1
f 1/1/1 2/2/1 3/3/1
f 2/4/2 4/5/2 5/6/2
f 5/7/1 6/8/1 7/9/1
f 8/10/3 1/11/3 7/12/3
f 9/13/4 4/14/4 3/15/4
f 10/16/3 11/17/3 12/18/3
f 13/19/1 14/20/1 15/21/1
f 14/20/1 1/1/1 9/22/1
f 8/23/1 16/24/1 17/25/1
f 17/26/5 18/27/5 13/28/5
f 18/29/4 19/30/4 15/31/4
f 20/32/3 21/33/3 22/34/3
f 23/35/1 24/36/1 14/20/1
f 24/37/2 14/38/2 25/39/2
f 25/40/1 17/25/1 26/41/1
f 26/42/5 13/28/5 23/43/5
f 27/44/1 28/45/1 2/2/1
f 28/46/2 5/6/2 29/47/2
f 29/48/1 7/9/1 30/49/1
f 30/50/5 1/51/5 27/52/5
f 15/31/4 6/53/4 9/13/4
f 7/9/1 6/8/1 8/23/1
f 1/51/5 6/54/5 9/55/5
f 8/56/2 15/57/2 19/58/2
f 31/59/1 11/60/1 32/61/1
f 11/62/2 33/63/2 12/64/2
f 12/65/1 34/66/1 10/67/1
f 10/68/5 35/69/5 31/70/5
f 36/71/1 21/72/1 37/73/1
f 21/74/2 38/75/2 22/76/2
f 22/77/1 39/78/1 20/79/1
f 20/80/5 40/81/5 36/82/5
f 40/83/1 37/73/1 24/36/1
f 38/84/1 26/41/1 39/78/1
f 39/85/5 23/43/5 40/81/5
f 35/86/1 32/61/1 28/45/1
f 32/87/2 29/47/2 33/63/2
f 33/88/1 30/49/1 34/66/1
f 24/89/4 30/90/4 27/91/4
f 30/50/5 35/69/5 34/92/5
f 24/36/5 38/93/5 25/94/5
f 38/93/1 34/95/1 30/96/1
f 34/97/3 38/98/3 37/99/3
f 41/100/6 42/101/6 43/102/6
f 44/103/2 45/104/2 42/105/2
f 46/106/1 47/107/1 45/108/1
f 48/109/5 43/110/5 47/111/5
f 43/112/3 45/113/3 47/114/3
f 49/115/1 50/116/1 51/117/1
f 52/118/5 53/119/5 50/120/5
f 54/121/6 55/122/6 53/123/6
f 56/124/2 51/125/2 55/126/2
f 51/127/3 53/128/3 55/129/3
f 56/130/4 54/131/4 49/132/4
f 57/133/1 58/134/1 59/135/1
f 60/136/5 61/137/5 58/138/5
f 61/139/6 62/140/6 63/141/6
f 64/142/2 59/143/2 62/144/2
f 59/145/3 58/146/3 62/147/3
f 64/148/4 60/149/4 57/150/4
f 65/151/1 66/152/1 67/153/1
f 68/154/5 69/155/5 66/156/5
f 70/157/6 71/158/6 72/159/6
f 73/160/2 74/161/2 71/162/2
f 67/163/3 75/164/3 76/165/3
f 77/166/4 69/167/4 65/168/4
f 78/169/1 79/170/1 80/171/1
f 79/172/7 81/173/7 82/174/7
f 81/175/6 83/176/6 84/177/6
f 85/178/8 80/179/9 83/180/8
f 80/181/10 84/182/10 83/183/10
f 85/184/11 79/185/11 78/186/11
f 86/187/1 87/188/1 88/189/1
f 87/190/12 89/191/12 90/192/12
f 89/193/6 91/194/6 92/195/6
f 93/196/13 88/197/13 91/198/13
f 88/199/14 90/200/14 91/201/14
f 93/202/15 87/203/15 86/204/15
f 94/205/1 95/206/1 96/207/1
f 97/208/5 98/209/5 95/210/5
f 98/211/6 99/212/6 100/213/6
f 101/214/2 96/215/2 99/216/2
f 96/217/3 100/218/3 99/219/3
f 101/220/4 98/221/4 94/222/4
f 102/223/1 103/224/1 104/225/1
f 103/226/2 105/227/2 106/228/2
f 106/229/1 107/230/1 108/231/1
f 109/232/3 102/233/3 108/234/3
f 110/235/3 104/236/3 105/237/3
f 111/238/3 112/239/3 113/240/3
f 114/241/1 115/242/1 116/243/1
f 115/242/1 102/223/1 110/244/1
f 109/245/1 117/246/1 118/247/1
f 118/248/2 114/249/2 119/250/2
f 119/251/3 116/252/3 120/253/3
f 121/254/3 122/255/3 123/256/3
f 124/257/1 125/258/1 115/242/1
f 125/259/2 115/260/2 126/261/2
f 126/262/1 118/247/1 127/263/1
f 127/264/5 114/249/5 124/265/5
f 128/266/1 129/267/1 103/224/1
f 129/268/2 106/228/2 130/269/2
f 130/270/1 108/231/1 131/271/1
f 131/272/5 102/273/5 128/274/5
f 116/252/3 110/235/3 107/275/3
f 108/231/1 107/230/1 109/245/1
f 102/273/5 107/276/5 110/277/5
f 109/278/2 116/279/2 120/280/2
f 132/281/1 112/282/1 133/283/1
f 112/284/2 134/285/2 113/286/2
f 113/287/1 135/288/1 111/289/1
f 111/290/5 136/291/5 132/292/5
f 137/293/1 122/294/1 138/295/1
f 122/296/2 139/297/2 123/298/2
f 123/299/1 140/300/1 121/301/1
f 121/302/5 141/303/5 137/304/5
f 141/305/1 138/295/1 125/258/1
f 139/306/1 127/263/1 140/300/1
f 140/307/5 124/265/5 141/303/5
f 136/308/1 133/283/1 129/267/1
f 133/309/2 130/269/2 134/285/2
f 134/310/1 131/271/1 135/288/1
f 125/311/4 131/312/4 128/313/4
f 131/272/5 136/291/5 135/314/5
f 125/258/5 139/315/5 126/316/5
f 139/315/6 131/317/6 135/318/6
f 135/319/3 139/320/3 138/321/3
f 142/322/1 143/323/1 74/324/1
f 77/325/16 72/159/16 76/326/16
f 74/327/3 72/328/3 71/329/3
f 73/330/4 70/331/4 142/332/4
f 144/333/17 67/153/17 143/323/17
f 143/334/3 76/165/3 72/328/3
f 70/331/4 77/166/4 144/335/4
f 69/336/6 76/326/6 75/337/6
f 9/22/1 1/1/1 3/3/1
f 3/338/2 4/5/2 2/4/2
f 4/339/1 6/8/1 5/7/1
f 14/340/3 1/11/3 8/10/3
f 6/53/4 4/14/4 9/13/4
f 31/341/3 11/17/3 10/16/3
f 18/342/1 13/19/1 15/21/1
f 15/21/1 14/20/1 9/22/1
f 19/343/1 16/24/1 8/23/1
f 16/344/5 18/27/5 17/26/5
f 16/345/4 19/30/4 18/29/4
f 36/346/3 21/33/3 20/32/3
f 13/19/1 23/35/1 14/20/1
f 25/39/2 14/38/2 8/56/2
f 8/23/1 17/25/1 25/40/1
f 17/26/5 13/28/5 26/42/5
f 1/1/1 27/44/1 2/2/1
f 2/4/2 5/6/2 28/46/2
f 5/7/1 7/9/1 29/48/1
f 7/347/5 1/51/5 30/50/5
f 19/30/4 6/53/4 15/31/4
f 7/347/5 6/54/5 1/51/5
f 14/38/2 15/57/2 8/56/2
f 35/86/1 31/59/1 32/61/1
f 32/87/2 33/63/2 11/62/2
f 33/88/1 34/66/1 12/65/1
f 34/92/2 10/68/2 35/69/2
f 40/83/1 36/71/1 37/73/1
f 37/348/2 38/75/2 21/74/2
f 38/84/1 39/78/1 22/77/1
f 39/85/5 40/81/5 20/80/5
f 23/35/1 40/83/1 24/36/1
f 25/40/1 26/41/1 38/84/1
f 26/42/5 23/43/5 39/85/5
f 27/44/1 35/86/1 28/45/1
f 28/46/2 29/47/2 32/87/2
f 29/48/1 30/49/1 33/88/1
f 25/349/3 24/89/3 30/90/3
f 27/52/5 35/69/5 30/50/5
f 24/36/5 37/73/5 38/93/5
f 27/44/1 24/36/1 37/73/1
f 35/86/1 27/44/1 37/73/1
f 25/94/1 38/93/1 30/96/1
f 35/350/3 34/97/3 37/99/3
f 44/351/6 42/101/6 41/100/6
f 46/352/2 45/104/2 44/103/2
f 48/353/1 47/107/1 46/106/1
f 41/354/5 43/110/5 48/109/5
f 42/355/3 45/113/3 43/112/3
f 52/356/1 50/116/1 49/115/1
f 54/357/5 53/119/5 52/118/5
f 56/358/6 55/122/6 54/121/6
f 49/359/2 51/125/2 56/124/2
f 50/360/3 53/128/3 51/127/3
f 144/335/4 77/166/4 65/168/4
f 60/361/1 58/134/1 57/133/1
f 64/362/6 62/140/6 61/139/6
f 57/363/2 59/143/2 64/142/2
f 61/364/4 60/149/4 64/148/4
f 68/365/1 66/152/1 65/151/1
f 73/366/6 71/158/6 70/157/6
f 142/367/2 74/161/2 73/160/2
f 66/368/3 75/164/3 67/163/3
f 80/171/1 79/170/1 82/369/1
f 85/370/6 83/176/6 81/175/6
f 78/371/9 80/179/9 85/178/8
f 82/372/10 84/182/10 80/181/10
f 81/373/11 79/185/11 85/184/11
f 88/189/1 87/188/1 90/374/1
f 93/375/6 91/194/6 89/193/6
f 86/376/13 88/197/13 93/196/13
f 89/377/15 87/203/15 93/202/15
f 97/378/1 95/206/1 94/205/1
f 58/138/5 61/137/5 63/379/5
f 101/380/6 99/212/6 98/211/6
f 94/381/2 96/215/2 101/214/2
f 95/382/3 100/218/3 96/217/3
f 90/192/12 89/191/12 92/383/12
f 65/168/4 69/167/4 68/384/4
f 82/174/7 81/173/7 84/385/7
f 66/156/5 69/155/5 75/386/5
f 94/222/4 98/221/4 97/387/4
f 95/210/5 98/209/5 100/388/5
f 8/23/1 6/8/1 19/343/1
f 109/245/1 107/230/1 120/389/1
f 62/147/3 58/146/3 63/390/3
f 91/201/14 90/200/14 92/391/14
f 49/132/4 54/131/4 52/392/4
f 110/244/1 102/223/1 104/225/1
f 104/393/2 105/227/2 103/226/2
f 105/394/1 107/230/1 106/229/1
f 115/395/3 102/233/3 109/232/3
f 107/275/3 110/235/3 105/237/3
f 132/396/3 112/239/3 111/238/3
f 119/397/1 114/241/1 116/243/1
f 116/243/1 115/242/1 110/244/1
f 120/389/1 117/246/1 109/245/1
f 117/398/2 118/248/2 119/250/2
f 117/399/3 119/251/3 120/253/3
f 137/400/3 122/255/3 121/254/3
f 114/241/1 124/257/1 115/242/1
f 126/261/2 115/260/2 109/278/2
f 109/245/1 118/247/1 126/262/1
f 118/248/2 127/264/2 114/249/2
f 102/223/1 128/266/1 103/224/1
f 103/226/2 106/228/2 129/268/2
f 106/229/1 108/231/1 130/270/1
f 108/401/2 131/272/2 102/273/2
f 120/253/3 116/252/3 107/275/3
f 108/401/5 107/276/5 102/273/5
f 115/260/2 116/279/2 109/278/2
f 136/308/1 132/281/1 133/283/1
f 133/309/2 134/285/2 112/284/2
f 134/310/1 135/288/1 113/287/1
f 135/314/5 136/291/5 111/290/5
f 141/305/1 137/293/1 138/295/1
f 138/402/2 139/297/2 122/296/2
f 139/306/1 140/300/1 123/299/1
f 140/307/5 141/303/5 121/302/5
f 124/257/1 141/305/1 125/258/1
f 126/262/1 127/263/1 139/306/1
f 127/264/5 124/265/5 140/307/5
f 128/266/1 136/308/1 129/267/1
f 129/268/2 130/269/2 133/309/2
f 130/270/1 131/271/1 134/310/1
f 126/403/4 131/312/4 125/311/4
f 128/274/5 136/291/5 131/272/5
f 125/258/5 138/295/5 139/315/5
f 128/266/1 125/258/1 138/295/1
f 136/308/1 128/266/1 138/295/1
f 126/316/6 131/317/6 139/315/6
f 136/404/3 135/319/3 138/321/3
f 144/333/1 143/323/1 142/322/1
f 70/157/16 72/159/16 77/325/16
f 143/334/3 72/328/3 74/327/3
f 65/151/17 67/153/17 144/333/17
f 67/163/3 76/165/3 143/334/3
f 77/325/6 76/326/6 69/336/6
f 142/332/4 70/331/4 144/335/4
