# Blender v2.90.1 OBJ File: ''
# www.blender.org
mtllib buggy.mtl
o RadarDish_Dish
v -0.046474 0.003334 -0.042163
v 0.043038 0.003334 0.047349
v -0.046474 0.003334 0.047349
v 0.008856 0.015866 -0.005849
v -0.243333 0.015866 -0.529526
v 0.008856 0.015866 -0.587086
v -0.445573 0.015866 -0.368244
v -0.557808 0.015866 -0.135186
v -0.557808 0.015866 0.123489
v -0.445573 0.015866 0.356547
v -0.243333 0.015866 0.517828
v 0.008856 0.015866 0.575389
v 0.261046 0.015866 0.517828
v 0.463286 0.015866 0.356547
v 0.575521 0.015866 0.123489
v 0.575521 0.015866 -0.135186
v 0.463286 0.015866 -0.368244
v 0.261046 0.015866 -0.529526
v -0.697838 0.123611 -0.569419
v -1.097623 0.309456 -0.258395
v -0.878471 0.309456 -0.713469
v -0.697838 0.123611 0.557722
v -0.483574 0.309457 1.016692
v -0.878471 0.309457 0.701772
v 0.401042 0.123611 0.808534
v 0.715551 0.123611 0.557722
v 0.501286 0.309457 1.016692
v 0.890090 0.123611 -0.206985
v 0.896184 0.309456 -0.713469
v 1.115336 0.309456 -0.258395
v -0.383330 0.123611 -0.820231
v -0.483573 0.309456 -1.028389
v -0.872377 0.123611 0.195287
v -1.097623 0.309457 0.246698
v 0.008856 0.123611 0.898048
v 0.008856 0.309457 1.129086
v 0.890090 0.123611 0.195287
v 1.115336 0.309457 0.246698
v 0.401042 0.123611 -0.820231
v 0.008856 0.309456 -1.140783
v 0.501286 0.309456 -1.028390
v -0.872377 0.123611 -0.206984
v -0.383330 0.123611 0.808534
v 0.896184 0.309457 0.701772
v 0.715551 0.123611 -0.569419
v 0.008856 0.123611 -0.909745
v 0.896184 0.309456 -0.713469
v 0.008856 0.309456 -1.140783
v -0.878471 0.309456 -0.713469
v -0.878471 0.309457 0.701772
v 0.501286 0.309457 1.016692
v 1.115336 0.309456 -0.258395
v -0.483573 0.309456 -1.028389
v -1.097623 0.309457 0.246698
v 0.008856 0.309457 1.129086
v 1.115336 0.309457 0.246698
v 0.501286 0.309456 -1.028390
v -1.097623 0.309456 -0.258395
v -0.483574 0.309457 1.016692
v 0.896184 0.309457 0.701772
v -0.562796 0.577838 -1.192896
v -1.275634 0.577838 0.287328
v 0.580508 0.577838 1.181199
v 0.008856 0.577838 1.311675
v 1.293347 0.577838 -0.299025
v 1.293347 0.577838 0.287328
v 0.008856 0.577838 -1.323372
v 0.580508 0.577838 -1.192896
v -1.275634 0.577838 -0.299025
v -0.562796 0.577838 1.181199
v 1.038938 0.577839 0.815614
v 1.038938 0.577838 -0.827312
v -1.021225 0.577838 -0.827311
v -1.021225 0.577839 0.815614
v 0.008856 0.051278 -0.005849
v 0.261046 0.051278 -0.529526
v 0.008856 0.051278 -0.587086
v 0.463286 0.051278 -0.368244
v 0.575521 0.051278 -0.135186
v 0.575521 0.051278 0.123489
v 0.463286 0.051278 0.356547
v 0.261046 0.051278 0.517828
v 0.008856 0.051278 0.575389
v -0.243333 0.051278 0.517828
v -0.445573 0.051278 0.356547
v -0.557808 0.051278 0.123489
v -0.557808 0.051278 -0.135186
v -0.445573 0.051278 -0.368244
v -0.243333 0.051278 -0.529526
v 0.715551 0.159023 -0.569419
v 1.115336 0.344869 -0.258395
v 0.896184 0.344869 -0.713469
v 0.715551 0.159024 0.557721
v 0.501286 0.344869 1.016692
v 0.896184 0.344869 0.701771
v -0.383330 0.159024 0.808534
v -0.878471 0.344869 0.701772
v -0.483573 0.344869 1.016692
v -0.872377 0.159023 -0.206985
v -0.878471 0.344869 -0.713469
v -1.097623 0.344869 -0.258395
v 0.401042 0.159023 -0.820231
v 0.501286 0.344869 -1.028390
v 0.890090 0.159023 0.195287
v 1.115336 0.344869 0.246698
v 0.008856 0.159024 0.898048
v 0.008856 0.344869 1.129086
v -0.872377 0.159023 0.195287
v -1.097623 0.344869 0.246698
v -0.383329 0.159023 -0.820231
v 0.008856 0.159023 -0.909745
v -0.483573 0.344869 -1.028390
v 0.890090 0.159023 -0.206984
v 0.401042 0.159024 0.808534
v -0.697838 0.159024 0.557722
v -0.697838 0.159023 -0.569419
v 0.008856 0.344868 -1.140783
v -0.878471 0.344869 -0.713469
v 0.008856 0.344868 -1.140783
v 0.896184 0.344869 -0.713469
v 0.896184 0.344869 0.701771
v -0.483573 0.344869 1.016692
v -1.097623 0.344869 -0.258395
v 0.501286 0.344869 -1.028390
v 1.115336 0.344869 0.246698
v 0.008856 0.344869 1.129086
v -1.097623 0.344869 0.246698
v -0.483573 0.344869 -1.028390
v 1.115336 0.344869 -0.258395
v 0.501286 0.344869 1.016692
v -0.878471 0.344869 0.701772
v 0.580508 0.613250 -1.192896
v 1.293347 0.613251 0.287328
v 0.008856 0.613251 1.311675
v -1.275634 0.613251 -0.299025
v -1.275634 0.613251 0.287328
v 0.008856 0.613250 -1.323372
v -0.562795 0.613250 -1.192896
v 1.293347 0.613251 -0.299025
v 0.580508 0.613251 1.181199
v -1.021225 0.613251 0.815614
v -1.021225 0.613251 -0.827312
v 1.038938 0.613251 -0.827311
v 1.038938 0.613251 0.815614
v -0.562796 0.613251 1.181199
v 0.043038 0.003334 -0.042163
vt 0.775111 0.244736
vt 0.783916 0.253595
vt 0.783943 0.244763
vt 0.666182 0.335891
vt 0.610276 0.323104
vt 0.610265 0.348628
vt 0.621360 0.300113
vt 0.641321 0.284208
vt 0.666207 0.278540
vt 0.691087 0.284230
vt 0.711035 0.300152
vt 0.722099 0.323153
vt 0.722089 0.348677
vt 0.711005 0.371668
vt 0.691044 0.387573
vt 0.666158 0.393242
vt 0.641278 0.387552
vt 0.621330 0.371629
vt 0.596374 0.280276
vt 0.617355 0.235039
vt 0.578378 0.266095
vt 0.704809 0.255576
vt 0.753480 0.266172
vt 0.714529 0.235081
vt 0.753020 0.355799
vt 0.735783 0.391553
vt 0.775063 0.360922
vt 0.666041 0.425103
vt 0.617270 0.436829
vt 0.665852 0.447940
vt 0.579137 0.316030
vt 0.556736 0.310988
vt 0.666116 0.246726
vt 0.665947 0.223970
vt 0.753036 0.316106
vt 0.775084 0.311084
vt 0.635772 0.848613
vt 0.658354 0.893368
vt 0.658505 0.843530
vt 0.596327 0.391492
vt 0.556715 0.360826
vt 0.578319 0.405738
vt 0.882742 0.409379
vt 0.859827 0.364684
vt 0.859980 0.414522
vt 0.735830 0.280337
vt 0.704741 0.416287
vt 0.753421 0.405815
vt 0.627348 0.416253
vt 0.579121 0.355723
vt 0.627416 0.255542
vt 0.000000 0.000000
vt 0.000000 0.000000
vt 0.000000 0.000000
vt 0.000000 0.000000
vt 0.000000 0.000000
vt 0.000000 0.000000
vt 0.000000 0.000000
vt 0.000000 0.000000
vt 0.000000 0.000000
vt 0.000000 0.000000
vt 0.000000 0.000000
vt 0.000000 0.000000
vt 0.000000 0.000000
vt 0.000000 0.000000
vt 0.000000 0.000000
vt 0.000000 0.000000
vt 0.000000 0.000000
vt 0.000000 0.000000
vt 0.000000 0.000000
vt 0.000000 0.000000
vt 0.000000 0.000000
vt 0.000000 0.000000
vt 0.000000 0.000000
vt 0.000000 0.000000
vt 0.000000 0.000000
vt 0.000000 0.000000
vt 0.000000 0.000000
vt 0.000000 0.000000
vt 0.901619 0.073843
vt 0.901617 0.034877
vt 0.869343 0.065927
vt 0.829113 0.790341
vt 0.829335 0.745437
vt 0.796449 0.786432
vt 0.863999 0.122219
vt 0.831441 0.065914
vt 0.831559 0.122319
vt 0.557300 0.790322
vt 0.589743 0.844205
vt 0.589917 0.786350
vt 0.901321 0.171019
vt 0.869221 0.122332
vt 0.868997 0.178737
vt 0.829266 0.840179
vt 0.796626 0.844288
vt 0.864195 0.170808
vt 0.831787 0.178724
vt 0.557136 0.745496
vt 0.589727 0.734313
vt 0.901080 0.209984
vt 0.868717 0.223970
vt 0.901514 0.122431
vt 0.829763 0.885080
vt 0.797203 0.896413
vt 0.864446 0.209772
vt 0.832078 0.223957
vt 0.863897 0.073631
vt 0.863909 0.034666
vt 0.557150 0.840159
vt 0.589237 0.896420
vt 0.666157 0.112044
vt 0.621304 0.076305
vt 0.610239 0.099305
vt 0.641252 0.060382
vt 0.666133 0.054692
vt 0.691019 0.060362
vt 0.710980 0.076267
vt 0.722063 0.099258
vt 0.722074 0.124782
vt 0.711009 0.147783
vt 0.691061 0.163705
vt 0.666180 0.169395
vt 0.641294 0.163726
vt 0.621333 0.147820
vt 0.610250 0.124829
vt 0.627333 0.031683
vt 0.665854 0.000000
vt 0.617271 0.011110
vt 0.735768 0.056385
vt 0.775064 0.087020
vt 0.753422 0.042127
vt 0.735813 0.167601
vt 0.714528 0.212860
vt 0.753479 0.181770
vt 0.627399 0.192394
vt 0.578377 0.181843
vt 0.617353 0.212901
vt 0.596311 0.056443
vt 0.578320 0.042200
vt 0.704726 0.031650
vt 0.714446 0.011070
vt 0.753020 0.131832
vt 0.775084 0.136858
vt 0.666099 0.201210
vt 0.665947 0.223970
vt 0.579120 0.131905
vt 0.579104 0.092212
vt 0.556735 0.136950
vt 0.666026 0.022834
vt 0.753004 0.092139
vt 0.704791 0.192362
vt 0.596356 0.167659
vt 0.556715 0.087112
vt 0.000000 0.000000
vt 0.000000 0.000000
vt 0.000000 0.000000
vt 0.000000 0.000000
vt 0.000000 0.000000
vt 0.000000 0.000000
vt 0.000000 0.000000
vt 0.000000 0.000000
vt 0.000000 0.000000
vt 0.000000 0.000000
vt 0.000000 0.000000
vt 0.000000 0.000000
vt 0.000000 0.000000
vt 0.000000 0.000000
vt 0.000000 0.000000
vt 0.000000 0.000000
vt 0.000000 0.000000
vt 0.000000 0.000000
vt 0.000000 0.000000
vt 0.000000 0.000000
vt 0.000000 0.000000
vt 0.000000 0.000000
vt 0.000000 0.000000
vt 0.000000 0.000000
vt 0.000000 0.000000
vt 0.000000 0.000000
vt 0.000000 0.000000
vt 0.000000 0.000000
vt 0.035410 0.745874
vt 0.035159 0.706910
vt 0.003091 0.738157
vt 0.859827 0.414522
vt 0.859330 0.369621
vt 0.827747 0.410611
vt 0.277928 0.794659
vt 0.278121 0.746071
vt 0.245493 0.794559
vt 0.969850 0.302225
vt 0.937564 0.248414
vt 0.937744 0.306269
vt 0.035708 0.843051
vt 0.003318 0.794562
vt 0.003437 0.850967
vt 0.561420 0.840172
vt 0.594187 0.786363
vt 0.594013 0.844218
vt 0.277822 0.843247
vt 0.245371 0.850965
vt 0.969691 0.347206
vt 0.937559 0.358486
vt 0.035697 0.882016
vt 0.003423 0.896201
vt 0.035606 0.794463
vt 0.560985 0.885151
vt 0.593507 0.896433
vt 0.277825 0.882213
vt 0.245374 0.896199
vt 0.278362 0.707106
vt 0.245717 0.738154
vt 0.969694 0.252387
vt 0.969255 0.207564
vt 0.864950 0.122319
vt 0.864727 0.178724
vt 0.864446 0.223957
vt 0.593997 0.734326
vt 0.827184 0.020693
vt 0.827170 0.065927
vt 0.831454 0.020680
vt 0.827289 0.122332
vt 0.827516 0.178737
vt 0.827808 0.223970
vt 0.792436 0.734318
vt 0.796706 0.734304
vt 0.792179 0.786445
vt 0.792356 0.844301
vt 0.865070 0.020680
vt 0.869340 0.020693
vt 0.865073 0.065914
vt 0.775084 0.253568
vt 0.245997 0.692921
vt 0.635652 0.888305
vt 0.882621 0.369687
vt 0.937054 0.196379
vt 0.714444 0.436872
vt 0.827170 0.358486
vt 0.556715 0.885138
vt 0.002800 0.692924
vt 0.561570 0.790335
vt 0.792934 0.896426
vn 0.0000 -1.0000 -0.0000
vn -0.5734 -0.7713 -0.2761
vn -0.3968 -0.7713 0.4976
vn 0.3968 -0.7713 0.4976
vn 0.5734 -0.7713 -0.2761
vn -0.3968 -0.7713 -0.4976
vn -0.5734 -0.7713 0.2761
vn 0.1416 -0.7713 0.6205
vn 0.6364 -0.7713 0.0000
vn 0.1416 -0.7713 -0.6205
vn -0.6364 -0.7713 0.0000
vn -0.1416 -0.7713 0.6205
vn 0.5734 -0.7713 0.2761
vn 0.3968 -0.7713 -0.4976
vn -0.1416 -0.7713 -0.6205
vn 0.0721 -0.9460 0.3159
vn -0.2919 -0.9460 0.1406
vn -0.2020 -0.9460 -0.2533
vn 0.2919 -0.9460 -0.1406
vn 0.2020 -0.9460 0.2533
vn -0.2020 -0.9460 0.2533
vn -0.2919 -0.9460 -0.1406
vn -0.0721 -0.9460 -0.3159
vn 0.2020 -0.9460 -0.2533
vn 0.2919 -0.9460 0.1406
vn -0.0721 -0.9460 0.3159
vn -0.3240 -0.9460 -0.0000
vn 0.0721 -0.9460 -0.3159
vn 0.3240 -0.9460 -0.0000
vn 0.0000 0.0000 1.0000
vn 0.0000 0.0000 0.0000
vn -0.5196 -0.5527 -0.6515
vn -0.7508 -0.5527 0.3616
vn 0.1854 -0.5527 0.8125
vn 0.8334 -0.5527 0.0000
vn 0.1854 -0.5527 -0.8125
vn -0.8334 -0.5527 0.0000
vn -0.1854 -0.5527 0.8125
vn 0.7508 -0.5527 0.3616
vn 0.5196 -0.5527 -0.6515
vn -0.1854 -0.5527 -0.8125
vn -0.7508 -0.5527 -0.3616
vn -0.5196 -0.5527 0.6515
vn 0.5196 -0.5527 0.6515
vn 0.7508 -0.5527 -0.3616
vn 0.0000 1.0000 0.0000
vn -0.5734 0.7713 0.2761
vn -0.3968 0.7713 -0.4976
vn 0.3968 0.7713 -0.4976
vn 0.5734 0.7713 0.2761
vn -0.3968 0.7713 0.4976
vn -0.5734 0.7713 -0.2761
vn 0.1416 0.7713 -0.6205
vn 0.6364 0.7713 0.0000
vn 0.1416 0.7713 0.6205
vn -0.6364 0.7713 0.0000
vn -0.1416 0.7713 -0.6205
vn 0.5734 0.7713 -0.2761
vn 0.3968 0.7713 0.4976
vn -0.1416 0.7713 0.6205
vn 0.0721 0.9460 -0.3159
vn -0.2919 0.9460 -0.1406
vn -0.2020 0.9460 0.2533
vn 0.2919 0.9460 0.1406
vn 0.2020 0.9460 -0.2533
vn -0.2020 0.9460 -0.2533
vn -0.2919 0.9460 0.1406
vn -0.0721 0.9460 0.3159
vn 0.2020 0.9460 0.2533
vn 0.2919 0.9460 -0.1406
vn -0.0721 0.9460 -0.3159
vn -0.3240 0.9460 0.0000
vn 0.0721 0.9460 0.3159
vn 0.3240 0.9460 0.0000
vn -0.5196 0.5527 0.6515
vn -0.7508 0.5527 -0.3616
vn 0.1854 0.5527 -0.8125
vn 0.8334 0.5527 0.0000
vn 0.1854 0.5527 0.8125
vn -0.8334 0.5527 0.0000
vn -0.1854 0.5527 -0.8125
vn 0.7508 0.5527 -0.3616
vn 0.5196 0.5527 0.6515
vn -0.1854 0.5527 0.8125
vn -0.7508 0.5527 0.3616
vn -0.5196 0.5527 -0.6515
vn 0.5196 0.5527 -0.6515
vn 0.7508 0.5527 0.3616
vn 0.2225 0.0000 -0.9749
vn 0.6235 0.0000 -0.7818
vn 0.9010 0.0000 -0.4339
vn 1.0000 0.0000 0.0000
vn 0.9010 0.0000 0.4339
vn 0.6235 0.0000 0.7818
vn 0.2225 0.0000 0.9749
vn -0.2225 0.0000 0.9749
vn -0.6235 0.0000 0.7818
vn -0.9010 0.0000 0.4339
vn -1.0000 0.0000 0.0000
vn -0.9010 -0.0000 -0.4339
vn -0.6235 -0.0000 -0.7818
vn -0.2225 0.0000 -0.9749
usemtl None.025
s 1
f 1/1/1 2/2/1 3/3/1
f 4/4/1 5/5/1 6/6/1
f 4/4/1 7/7/1 5/5/1
f 4/4/1 8/8/1 7/7/1
f 4/4/1 9/9/1 8/8/1
f 4/4/1 10/10/1 9/9/1
f 4/4/1 11/11/1 10/10/1
f 4/4/1 12/12/1 11/11/1
f 4/4/1 13/13/1 12/12/1
f 4/4/1 14/14/1 13/13/1
f 4/4/1 15/15/1 14/14/1
f 4/4/1 16/16/1 15/15/1
f 4/4/1 17/17/1 16/16/1
f 4/4/1 18/18/1 17/17/1
f 4/4/1 6/6/1 18/18/1
f 19/19/2 20/20/2 21/21/2
f 22/22/3 23/23/3 24/24/3
f 25/25/4 26/26/4 27/27/4
f 28/28/5 29/29/5 30/30/5
f 31/31/6 19/19/6 32/32/6
f 33/33/7 22/22/7 34/34/7
f 35/35/8 25/25/8 36/36/8
f 37/37/9 30/38/9 38/39/9
f 39/40/10 40/41/10 41/42/10
f 42/43/11 34/44/11 20/45/11
f 43/46/12 35/35/12 23/23/12
f 26/26/13 37/47/13 44/48/13
f 45/49/14 39/40/14 29/29/14
f 46/50/15 31/31/15 40/41/15
f 12/12/16 13/13/16 35/35/16
f 9/9/17 10/10/17 33/33/17
f 5/5/18 7/7/18 31/31/18
f 16/16/19 45/49/19 28/28/19
f 13/13/20 14/14/20 25/25/20
f 10/10/21 11/11/21 22/22/21
f 7/7/22 8/8/22 19/19/22
f 6/6/23 5/5/23 46/50/23
f 17/17/24 39/40/24 45/49/24
f 14/14/25 37/47/25 26/26/25
f 11/11/26 12/12/26 43/46/26
f 8/8/27 33/33/27 42/51/27
f 18/18/28 6/6/28 39/40/28
f 15/15/29 16/16/29 37/47/29
f 29/52/30 47/53/30 41/54/30
f 40/55/30 48/56/30 32/57/30
f 21/58/30 49/59/30 20/60/31
f 24/61/30 50/62/30 23/63/30
f 27/64/30 51/65/30 44/66/30
f 30/67/31 52/68/31 29/52/30
f 32/57/30 53/69/30 21/58/30
f 34/70/31 54/71/31 24/61/30
f 36/72/30 55/73/30 27/64/30
f 38/74/31 56/75/31 30/67/31
f 41/54/30 57/76/30 40/55/30
f 20/60/31 58/77/31 34/70/31
f 23/63/30 59/78/30 36/72/30
f 44/66/30 60/79/30 38/74/31
f 53/80/32 49/81/32 61/82/32
f 54/83/33 50/84/33 62/85/33
f 55/86/34 63/87/34 64/88/34
f 56/89/35 65/90/35 66/91/35
f 57/92/36 67/93/36 68/94/36
f 58/95/37 54/83/37 69/96/37
f 59/97/38 55/86/38 70/98/38
f 60/99/39 66/91/39 71/100/39
f 47/101/40 68/94/40 72/102/40
f 48/103/41 53/80/41 67/93/41
f 49/104/42 69/96/42 73/105/42
f 50/106/43 70/98/43 74/107/43
f 51/108/44 60/109/44 63/87/44
f 52/110/45 72/111/45 65/90/45
f 75/112/46 76/113/46 77/114/46
f 75/112/46 78/115/46 76/113/46
f 75/112/46 79/116/46 78/115/46
f 75/112/46 80/117/46 79/116/46
f 75/112/46 81/118/46 80/117/46
f 75/112/46 82/119/46 81/118/46
f 75/112/46 83/120/46 82/119/46
f 75/112/46 84/121/46 83/120/46
f 75/112/46 85/122/46 84/121/46
f 75/112/46 86/123/46 85/122/46
f 75/112/46 87/124/46 86/123/46
f 75/112/46 88/125/46 87/124/46
f 75/112/46 89/126/46 88/125/46
f 75/112/46 77/114/46 89/126/46
f 90/127/47 91/128/47 92/129/47
f 93/130/48 94/131/48 95/132/48
f 96/133/49 97/134/49 98/135/49
f 99/136/50 100/137/50 101/138/50
f 102/139/51 92/129/51 103/140/51
f 104/141/52 95/132/52 105/142/52
f 106/143/53 98/135/53 107/144/53
f 108/145/54 101/138/54 109/146/54
f 110/147/55 111/148/55 112/149/55
f 113/150/56 105/142/56 91/128/56
f 114/151/57 106/143/57 94/131/57
f 115/152/58 109/146/58 97/134/58
f 116/153/59 112/149/59 100/137/59
f 111/148/60 102/139/60 117/154/60
f 83/120/61 84/121/61 106/143/61
f 80/117/62 93/130/62 104/141/62
f 76/113/63 78/115/63 102/139/63
f 87/124/64 116/153/64 99/136/64
f 84/121/65 85/122/65 96/133/65
f 81/118/66 114/151/66 93/130/66
f 78/115/67 79/116/67 90/127/67
f 77/114/68 102/139/68 111/148/68
f 88/125/69 110/147/69 116/153/69
f 85/122/70 108/145/70 115/152/70
f 82/119/71 83/120/71 114/151/71
f 79/116/72 80/117/72 113/150/72
f 89/126/73 111/148/73 110/147/73
f 86/123/74 87/124/74 108/145/74
f 100/155/30 112/156/30 118/157/30
f 117/158/30 103/159/30 119/160/30
f 92/161/30 91/162/31 120/163/30
f 95/164/30 94/165/30 121/166/30
f 98/167/30 97/168/30 122/169/30
f 101/170/31 100/155/30 123/171/31
f 103/159/30 92/161/30 124/172/30
f 105/173/31 95/164/30 125/174/31
f 107/175/30 98/167/30 126/176/30
f 109/177/31 101/170/31 127/178/31
f 112/156/30 117/158/30 128/179/30
f 91/162/31 105/173/31 129/180/31
f 94/165/30 107/175/30 130/181/30
f 97/168/30 109/177/31 131/182/30
f 124/183/75 120/184/75 132/185/75
f 125/186/76 121/187/76 133/188/76
f 126/189/77 122/190/77 134/191/77
f 127/192/78 135/193/78 136/194/78
f 128/195/79 137/196/79 138/197/79
f 129/198/80 133/199/80 139/200/80
f 130/201/81 134/191/81 140/202/81
f 131/203/82 127/192/82 141/204/82
f 118/205/83 138/197/83 142/206/83
f 119/207/84 124/183/84 137/196/84
f 120/208/85 139/200/85 143/209/85
f 121/210/86 130/201/86 144/211/86
f 122/190/87 131/212/87 145/213/87
f 123/214/88 118/215/88 135/193/88
f 137/216/89 68/94/89 67/93/89
f 132/217/90 143/218/90 68/94/90
f 143/209/91 65/90/91 72/111/91
f 139/200/92 133/199/92 65/90/92
f 133/199/93 144/219/93 66/91/93
f 144/220/94 140/221/94 71/222/94
f 140/221/95 134/223/95 63/87/95
f 134/223/96 145/224/96 64/88/96
f 145/224/97 141/225/97 70/98/97
f 141/226/98 62/85/98 74/227/98
f 136/228/99 69/96/99 62/85/99
f 135/229/100 73/105/100 69/96/100
f 142/230/101 61/82/101 73/231/101
f 138/232/102 67/93/102 61/82/102
f 35/35/16 13/13/16 25/25/16
f 146/233/1 2/2/1 1/1/1
f 134/191/77 122/190/77 145/213/77
f 144/211/86 130/201/86 140/202/86
f 36/36/8 25/25/8 27/27/8
f 46/50/23 5/5/23 31/31/23
f 34/34/7 22/22/7 24/24/7
f 141/204/82 127/192/82 136/194/82
f 145/213/87 131/212/87 141/234/87
f 42/51/2 20/20/2 19/19/2
f 43/46/3 23/23/3 22/22/3
f 45/49/5 29/29/5 28/28/5
f 25/25/20 14/14/20 26/26/20
f 69/96/37 54/83/37 62/85/37
f 28/235/9 30/38/9 37/37/9
f 46/50/10 40/41/10 39/40/10
f 33/236/11 34/44/11 42/43/11
f 106/143/61 84/121/61 96/133/61
f 113/150/72 80/117/72 104/141/72
f 40/41/15 31/31/15 32/32/15
f 70/98/97 141/225/97 74/107/97
f 22/22/21 11/11/21 43/46/21
f 33/33/17 10/10/17 22/22/17
f 17/17/19 45/49/19 16/16/19
f 43/46/26 12/12/26 35/35/26
f 68/94/90 143/218/90 72/102/90
f 135/193/88 118/215/88 142/237/88
f 18/18/24 39/40/24 17/17/24
f 15/15/25 37/47/25 14/14/25
f 29/29/14 39/40/14 41/42/14
f 9/9/27 33/33/27 8/8/27
f 108/145/74 87/124/74 99/136/74
f 41/54/30 47/53/30 57/76/30
f 32/57/30 48/56/30 53/69/30
f 20/60/31 49/59/30 58/77/31
f 23/63/30 50/62/30 59/78/30
f 44/66/30 51/65/30 60/79/30
f 29/52/30 52/68/31 47/53/30
f 21/58/30 53/69/30 49/59/30
f 24/61/30 54/71/31 50/62/30
f 27/64/30 55/73/30 51/65/30
f 30/67/31 56/75/31 52/68/31
f 40/55/30 57/76/30 48/56/30
f 34/70/31 58/77/31 54/71/31
f 36/72/30 59/78/30 55/73/30
f 38/74/31 60/79/30 56/75/31
f 61/82/32 49/81/32 73/231/32
f 44/48/13 37/47/13 38/238/13
f 51/108/34 63/87/34 55/86/34
f 52/110/35 65/90/35 56/89/35
f 48/103/36 67/93/36 57/92/36
f 133/188/76 121/187/76 144/239/76
f 94/131/57 106/143/57 107/144/57
f 56/89/39 66/91/39 60/99/39
f 57/92/40 68/94/40 47/101/40
f 67/93/41 53/80/41 61/82/41
f 58/95/42 69/96/42 49/104/42
f 59/97/43 70/98/43 50/106/43
f 63/87/44 60/109/44 71/222/44
f 47/240/45 72/111/45 52/110/45
f 113/150/47 91/128/47 90/127/47
f 114/151/48 94/131/48 93/130/48
f 115/152/49 97/134/49 96/133/49
f 116/153/50 100/137/50 99/136/50
f 90/127/51 92/129/51 102/139/51
f 93/130/52 95/132/52 104/141/52
f 96/133/53 98/135/53 106/143/53
f 99/136/54 101/138/54 108/145/54
f 104/141/56 105/142/56 113/150/56
f 23/23/12 35/35/12 36/36/12
f 108/145/58 109/146/58 115/152/58
f 110/147/59 112/149/59 116/153/59
f 117/154/60 102/139/60 103/140/60
f 114/151/71 83/120/71 106/143/71
f 81/118/62 93/130/62 80/117/62
f 88/125/64 116/153/64 87/124/64
f 96/133/65 85/122/65 115/152/65
f 82/119/66 114/151/66 81/118/66
f 31/31/18 7/7/18 19/19/18
f 76/113/68 102/139/68 77/114/68
f 89/126/69 110/147/69 88/125/69
f 86/123/70 108/145/70 85/122/70
f 90/127/67 79/116/67 113/150/67
f 102/139/63 78/115/63 90/127/63
f 77/114/73 111/148/73 89/126/73
f 19/19/22 8/8/22 42/51/22
f 118/157/30 112/156/30 128/179/30
f 119/160/30 103/159/30 124/172/30
f 120/163/30 91/162/31 129/180/31
f 121/166/30 94/165/30 130/181/30
f 122/169/30 97/168/30 131/182/30
f 123/171/31 100/155/30 118/157/30
f 124/172/30 92/161/30 120/163/30
f 125/174/31 95/164/30 121/166/30
f 126/176/30 98/167/30 122/169/30
f 127/178/31 101/170/31 123/171/31
f 128/179/30 117/158/30 119/160/30
f 129/180/31 105/173/31 125/174/31
f 130/181/30 107/175/30 126/176/30
f 131/182/30 109/177/31 127/178/31
f 132/185/75 120/184/75 143/241/75
f 123/214/78 135/193/78 127/192/78
f 119/207/79 137/196/79 128/195/79
f 125/242/80 133/199/80 129/198/80
f 126/189/81 134/191/81 130/201/81
f 32/32/6 19/19/6 21/21/6
f 128/195/83 138/197/83 118/205/83
f 137/196/84 124/183/84 132/185/84
f 129/198/85 139/200/85 120/208/85
f 70/98/38 55/86/38 64/88/38
f 132/217/89 68/94/89 137/216/89
f 39/40/28 6/6/28 46/50/28
f 139/200/91 65/90/91 143/209/91
f 37/47/29 16/16/29 28/28/29
f 66/91/93 144/219/93 71/100/93
f 71/222/94 140/221/94 63/87/94
f 63/87/95 134/223/95 64/88/95
f 64/88/96 145/224/96 70/98/96
f 62/85/33 50/84/33 74/227/33
f 136/228/98 62/85/98 141/226/98
f 135/229/99 69/96/99 136/228/99
f 142/243/100 73/105/100 135/229/100
f 138/232/101 61/82/101 142/230/101
f 137/216/102 67/93/102 138/232/102
f 65/90/92 133/199/92 66/91/92
f 112/149/55 111/148/55 117/154/55
f 27/27/4 26/26/4 44/48/4
