# Blender v2.90.1 OBJ File: ''
# www.blender.org
mtllib buggy.mtl
o Wheel_Right_Cover
v 0.923860 1.360271 0.355444
v 0.929918 1.323436 -0.295320
v 0.923860 1.349508 -0.322901
v 0.635814 1.072476 -0.950726
v 0.635814 1.405730 -0.340635
v 0.923860 1.031847 -0.904445
v 0.194501 0.928968 -0.787258
v 0.347768 1.349508 -0.322901
v 0.347768 1.031847 -0.904445
v 0.635814 1.417022 0.371009
v 0.923860 1.349508 -0.322901
v 0.194501 1.207145 -0.277997
v 0.347768 1.360271 0.355444
v 0.923860 1.061254 0.948829
v 0.923860 1.360271 0.355444
v 0.194501 1.216571 0.316033
v 0.194501 0.954720 0.835663
v 0.347768 1.061254 0.948829
v 0.635814 1.103327 0.993522
v 0.923860 0.532578 1.298256
v 0.194501 0.491756 1.141658
v 0.347768 0.532577 1.298256
v 0.635814 0.548699 1.360101
v 0.923860 -0.084100 1.310096
v 0.194502 -0.048272 1.152027
v 0.347768 -0.084100 1.310096
v 0.641871 1.046406 -0.896264
v 0.929917 1.005776 -0.851964
v 0.641871 1.379660 -0.312294
v 0.200559 0.902897 -0.739795
v 0.353825 1.323436 -0.295320
v 0.200559 1.181075 -0.252339
v 0.353825 1.005776 -0.851965
v 0.929917 1.323436 -0.295320
v 0.641871 1.390952 0.368880
v 0.353825 1.334200 0.353982
v 0.200559 1.190500 0.316258
v 0.929917 1.035184 0.921961
v 0.641871 1.077257 0.964740
v 0.200559 0.928650 0.813639
v 0.353825 1.035183 0.921960
v 0.929918 0.506507 1.256426
v 0.641871 0.522629 1.315624
v 0.200559 0.465685 1.106533
v 0.353825 0.506507 1.256426
v 0.929918 -0.110171 1.267760
v 0.641871 -0.124320 1.327513
v 0.200559 -0.074342 1.116458
v 0.353825 -0.110171 1.267760
v 0.635814 -0.098250 1.372522
v 0.929917 1.334200 0.353982
v 0.929918 1.334200 0.353982
vt 0.505526 0.712612
vt 0.501432 0.812324
vt 0.505513 0.816472
vt 0.911038 0.256876
vt 0.809306 0.257189
vt 0.910683 0.300978
vt 0.909096 0.189316
vt 0.813439 0.213075
vt 0.910412 0.212777
vt 0.809743 0.623328
vt 0.802385 0.525003
vt 0.767033 0.617540
vt 0.879881 0.601532
vt 0.847297 0.523282
vt 0.854311 0.617005
vt 0.759950 0.422158
vt 0.760018 0.523817
vt 0.873738 0.519458
vt 0.873679 0.430435
vt 0.847229 0.421622
vt 0.802314 0.418354
vt 0.766848 0.339804
vt 0.879719 0.358318
vt 0.854125 0.339269
vt 0.078700 0.934788
vt 0.035491 0.837783
vt 0.034640 0.930186
vt 0.717705 0.625829
vt 0.644609 0.664429
vt 0.733319 0.644430
vt 0.122836 0.930997
vt 0.123687 0.838594
vt 0.884858 0.579046
vt 0.879881 0.623132
vt 0.951706 0.579252
vt 0.478460 0.803029
vt 0.500209 0.712612
vt 0.478430 0.717127
vt 0.880152 0.534932
vt 0.943872 0.535128
vt 0.569934 0.627770
vt 0.526132 0.633686
vt 0.569142 0.723746
vt 0.638417 0.647297
vt 0.613524 0.724631
vt 0.637757 0.727411
vt 0.614279 0.633145
vt 0.526305 0.822962
vt 0.570116 0.826337
vt 0.638568 0.813047
vt 0.614452 0.822421
vt 0.528666 0.900853
vt 0.572592 0.908051
vt 0.297174 0.516355
vt 0.317310 0.526612
vt 0.319506 0.435521
vt 0.616813 0.900312
vt 0.879766 0.850786
vt 0.954393 0.894658
vt 0.949424 0.850572
vt 0.342811 0.434304
vt 0.296963 0.355991
vt 0.887724 0.806661
vt 0.954123 0.806458
vt 0.759922 0.552109
vt 0.754814 0.550893
vt 0.717781 0.382442
vt 0.715956 0.387746
vt 0.759950 0.463023
vt 0.180286 0.719972
vt 0.172762 0.815779
vt 0.178395 0.816963
vt 0.644715 0.331957
vt 0.644388 0.340242
vt 0.078713 0.832630
vt 0.079592 0.837849
vt 0.131320 0.639268
vt 0.172719 0.720013
vt 0.756373 0.464849
vt 0.330417 0.702032
vt 0.323102 0.798341
vt 0.330475 0.803455
vt 0.643343 0.684515
vt 0.649849 0.688510
vt 0.314149 0.815081
vt 0.306193 0.772760
vt 0.296963 0.773641
vt 0.123805 0.900988
vt 0.297217 0.728573
vt 0.306170 0.727741
vt 0.314792 0.700967
vt 0.711695 0.622821
vt 0.501514 0.712910
vt 0.813711 0.301275
vt 0.824177 0.189577
vt 0.809550 0.331957
vt 0.943601 0.623328
vt 0.500243 0.810706
vt 0.525377 0.725172
vt 0.887994 0.894861
vt 0.317070 0.343486
vt 0.122808 0.833452
vt 0.123687 0.639352
vt 0.324874 0.700263
vt 0.638568 0.661361
vt 0.034610 0.832640
vt 0.323102 0.814250
vt 0.323045 0.700263
vt 0.126152 0.904255
vn 0.9746 0.2239 -0.0036
vn 0.9742 0.2254 -0.0037
vn 0.9749 0.2228 -0.0035
vn 0.1969 0.8604 -0.4700
vn -0.6909 0.6345 -0.3466
vn -0.1969 0.8604 -0.4700
vn 0.1925 0.9812 -0.0156
vn -0.6823 0.7309 -0.0116
vn -0.1925 0.9812 -0.0156
vn 0.1964 0.8756 0.4412
vn -0.6899 0.6465 0.3258
vn -0.1964 0.8756 0.4412
vn 0.2055 0.5396 0.8164
vn -0.7068 0.3900 0.5901
vn -0.2055 0.5396 0.8164
vn 0.2109 0.0188 0.9773
vn -0.7163 0.0134 0.6976
vn -0.2109 0.0188 0.9773
vn -0.1949 -0.8519 0.4861
vn 0.6871 -0.6310 0.3601
vn 0.1949 -0.8519 0.4861
vn -0.1925 -0.9812 0.0163
vn 0.6823 -0.7309 0.0121
vn 0.1925 -0.9812 0.0163
vn -0.1946 -0.8679 -0.4569
vn 0.6866 -0.6434 -0.3387
vn 0.1946 -0.8679 -0.4569
vn -0.1995 -0.5239 -0.8281
vn 0.6958 -0.3840 -0.6069
vn 0.1995 -0.5239 -0.8281
vn -0.2022 -0.0180 -0.9792
vn 0.7009 -0.0131 -0.7131
vn 0.2022 -0.0180 -0.9792
vn -0.9833 -0.1003 -0.1518
vn -0.9748 -0.2230 0.0035
vn -0.9743 -0.2253 0.0037
vn -0.9746 -0.2240 0.0036
vn 0.9867 0.0896 0.1355
vn -0.9913 -0.1155 0.0631
vn -0.1467 -0.8644 0.4809
vn 0.9900 0.0027 0.1412
vn 0.9901 0.0026 0.1405
vn 0.9899 0.0027 0.1417
vn -0.9675 -0.2258 -0.1138
vn 0.9921 0.1098 -0.0600
vn -0.5596 -0.7391 0.3751
vn 0.1522 -0.8462 0.5106
vn -0.0590 -0.9030 -0.4257
vn 0.9858 0.1485 0.0782
vn 0.0566 -0.8981 -0.4362
vn 0.2305 -0.8606 -0.4541
vn -0.9858 -0.0032 -0.1676
vn -0.9861 -0.0031 -0.1663
vn -0.9860 -0.0031 -0.1670
vn 0.9740 0.2265 -0.0038
vn -0.9905 -0.0735 -0.1162
vn -0.9740 -0.2263 0.0038
vn 0.9925 0.0652 0.1031
vn -0.9856 -0.1467 0.0837
vn -0.1463 -0.8515 0.5035
vn 0.9901 0.0026 0.1401
vn -0.9839 -0.1582 -0.0833
vn 0.9864 0.1429 -0.0815
vn -0.5761 -0.7029 0.4171
vn 0.1516 -0.8318 0.5339
vn -0.0590 -0.8967 -0.4387
vn 0.0566 -0.8915 -0.4494
vn 0.2083 -0.8458 -0.4912
vn -0.9862 -0.0030 -0.1657
vn 0.9695 0.2190 0.1104
usemtl None.001
s 1
f 1/1/1 2/2/2 3/3/3
f 4/4/4 5/5/4 6/6/4
f 7/7/5 8/8/5 9/9/5
f 9/9/6 5/5/6 4/4/6
f 5/10/7 10/11/7 11/12/7
f 12/13/8 13/14/8 8/15/8
f 8/15/9 10/11/9 5/10/9
f 10/11/10 14/16/10 15/17/10
f 16/18/11 17/19/11 13/14/11
f 13/14/12 18/20/12 10/11/12
f 19/21/13 20/22/13 14/16/13
f 17/19/14 21/23/14 18/20/14
f 18/20/15 22/24/15 19/21/15
f 23/25/16 24/26/16 20/27/16
f 21/28/17 25/29/17 22/30/17
f 22/31/18 26/32/18 23/25/18
f 27/33/19 28/34/19 29/35/19
f 30/36/20 31/37/20 32/38/20
f 33/39/21 29/35/21 31/40/21
f 29/41/22 34/42/22 35/43/22
f 32/44/23 36/45/23 37/46/23
f 31/47/24 35/43/24 36/45/24
f 35/43/25 38/48/25 39/49/25
f 37/46/26 36/45/26 40/50/26
f 36/45/27 35/43/27 41/51/27
f 39/49/28 42/52/28 43/53/28
f 40/54/29 41/55/29 44/56/29
f 41/51/30 39/49/30 45/57/30
f 43/58/31 46/59/31 47/60/31
f 44/56/32 45/61/32 48/62/32
f 45/63/33 43/58/33 49/64/33
f 17/65/34 40/66/34 21/28/34
f 12/67/35 32/68/36 16/69/37
f 20/70/38 38/71/38 14/72/38
f 7/73/39 30/74/39 12/67/39
f 26/32/40 47/75/40 50/76/40
f 24/77/41 42/78/42 20/70/43
f 16/69/44 37/79/44 17/65/44
f 11/80/45 28/81/45 6/82/45
f 25/29/46 49/83/46 26/84/46
f 50/76/47 47/75/47 24/26/47
f 6/85/48 27/86/48 4/87/48
f 38/71/49 51/88/49 14/72/49
f 4/87/50 27/86/50 9/89/50
f 9/89/51 33/90/51 7/91/51
f 21/28/52 44/92/53 25/29/54
f 52/93/55 2/2/2 1/1/1
f 6/6/4 5/5/4 11/94/4
f 12/95/5 8/8/5 7/7/5
f 8/8/6 5/5/6 9/9/6
f 11/12/7 10/11/7 15/17/7
f 16/18/8 13/14/8 12/13/8
f 13/14/9 10/11/9 8/15/9
f 19/21/10 14/16/10 10/11/10
f 13/14/11 17/19/11 18/20/11
f 10/11/12 18/20/12 19/21/12
f 23/96/13 20/22/13 19/21/13
f 18/20/14 21/23/14 22/24/14
f 19/21/15 22/24/15 23/96/15
f 50/76/16 24/26/16 23/25/16
f 22/30/17 25/29/17 26/84/17
f 23/25/18 26/32/18 50/76/18
f 29/35/19 28/34/19 34/97/19
f 33/98/20 31/37/20 30/36/20
f 27/33/21 29/35/21 33/39/21
f 35/43/22 34/42/22 51/99/22
f 31/47/23 36/45/23 32/44/23
f 29/41/24 35/43/24 31/47/24
f 51/99/25 38/48/25 35/43/25
f 40/50/26 36/45/26 41/51/26
f 41/51/27 35/43/27 39/49/27
f 38/48/28 42/52/28 39/49/28
f 44/56/29 41/55/29 45/61/29
f 45/57/30 39/49/30 43/53/30
f 42/100/31 46/59/31 43/58/31
f 48/62/32 45/61/32 49/101/32
f 49/64/33 43/58/33 47/60/33
f 21/28/56 40/66/56 44/92/56
f 16/69/37 32/68/36 37/79/57
f 42/78/58 38/71/58 20/70/58
f 12/67/59 30/74/59 32/68/59
f 49/102/60 47/75/60 26/32/60
f 46/103/61 42/78/42 24/77/41
f 17/65/62 37/79/62 40/66/62
f 34/104/63 28/81/63 11/80/63
f 48/105/64 49/83/64 25/29/64
f 24/26/65 47/75/65 46/106/65
f 28/107/66 27/86/66 6/85/66
f 9/89/67 27/86/67 33/90/67
f 7/91/68 33/90/68 30/108/68
f 25/29/54 44/92/53 48/105/69
f 14/72/70 51/88/70 15/109/70
